<svg width="108" height="41" viewBox="0 0 108 41" fill="none" xmlns="http://www.w3.org/2000/svg">
<path d="M44.4666 27.8417L44.4795 21.2367H45.2809L51.6403 13.7011H57.9609L49.4171 23.6797H48.1116L44.4666 27.8417ZM39.4773 33.5548V7.08319H44.9836V33.5548H39.4773ZM51.8859 33.5548L46.0435 24.9076L49.7144 21.017L58.3357 33.5548H51.8859Z" fill="white"/>
<path d="M64.5249 33.9426C62.4827 33.9426 60.7248 33.529 59.2513 32.7017C57.7864 31.8659 56.6575 30.6853 55.8648 29.1601C55.072 27.6263 54.6756 25.8124 54.6756 23.7184C54.6756 21.6762 55.072 19.8838 55.8648 18.3414C56.6575 16.7989 57.7734 15.5969 59.2125 14.7351C60.6602 13.8734 62.3577 13.4426 64.3052 13.4426C65.615 13.4426 66.8343 13.6537 67.9631 14.0759C69.1006 14.4896 70.0915 15.1143 70.936 15.9502C71.7891 16.786 72.4526 17.8373 72.9265 19.104C73.4005 20.3621 73.6375 21.8356 73.6375 23.5246V25.0368H56.873V21.6245H68.4543C68.4543 20.8317 68.2819 20.1294 67.9373 19.5176C67.5926 18.9058 67.1143 18.4276 66.5025 18.0829C65.8993 17.7296 65.197 17.5529 64.3957 17.5529C63.5598 17.5529 62.8187 17.7468 62.1724 18.1346C61.5348 18.5137 61.035 19.0264 60.6731 19.6727C60.3112 20.3104 60.1259 21.0213 60.1173 21.8054V25.0498C60.1173 26.0321 60.2982 26.8809 60.6602 27.5961C61.0307 28.3113 61.552 28.8628 62.2241 29.2506C62.8963 29.6384 63.6934 29.8322 64.6154 29.8322C65.2272 29.8322 65.7873 29.7461 66.2957 29.5737C66.8041 29.4014 67.2393 29.1429 67.6012 28.7982C67.9631 28.4535 68.2389 28.0313 68.4284 27.5315L73.5211 27.8676C73.2626 29.0912 72.7327 30.1597 71.9313 31.0731C71.1385 31.9779 70.1131 32.6845 68.855 33.1929C67.6055 33.6927 66.1621 33.9426 64.5249 33.9426Z" fill="white"/>
<path d="M89.3819 19.3625L84.3409 19.6727C84.2547 19.2419 84.0694 18.8541 83.7851 18.5094C83.5007 18.1561 83.1259 17.8761 82.6606 17.6693C82.2038 17.4538 81.6567 17.3461 81.019 17.3461C80.1659 17.3461 79.4464 17.5271 78.8604 17.889C78.2745 18.2423 77.9815 18.7162 77.9815 19.3108C77.9815 19.7847 78.1711 20.1854 78.5502 20.5129C78.9294 20.8403 79.58 21.1032 80.502 21.3013L84.0953 22.0252C86.0255 22.4216 87.4646 23.0592 88.4124 23.9382C89.3603 24.8171 89.8343 25.9718 89.8343 27.4022C89.8343 28.7034 89.4508 29.8452 88.6839 30.8275C87.9256 31.8099 86.8829 32.5768 85.5559 33.1283C84.2375 33.6711 82.7166 33.9426 80.9932 33.9426C78.3649 33.9426 76.271 33.3954 74.7113 32.301C73.1602 31.1981 72.2511 29.6987 71.984 27.8029L77.3998 27.5186C77.5636 28.32 77.9599 28.9318 78.589 29.354C79.218 29.7676 80.0237 29.9744 81.0061 29.9744C81.9712 29.9744 82.7467 29.7892 83.3327 29.4186C83.9273 29.0395 84.2289 28.5526 84.2375 27.958C84.2289 27.4582 84.0177 27.0489 83.6041 26.7301C83.1905 26.4027 82.5528 26.1528 81.6911 25.9804L78.2529 25.2954C76.3141 24.9076 74.8707 24.2355 73.9228 23.279C72.9836 22.3225 72.514 21.1032 72.514 19.621C72.514 18.3457 72.8586 17.247 73.548 16.325C74.246 15.403 75.224 14.6921 76.4821 14.1923C77.7488 13.6925 79.231 13.4426 80.9285 13.4426C83.4361 13.4426 85.4094 13.9725 86.8484 15.0324C88.2961 16.0923 89.1406 17.5357 89.3819 19.3625Z" fill="white"/>
<path d="M92.3332 41C91.6352 41 90.9803 40.944 90.3685 40.8319C89.7653 40.7285 89.2655 40.595 88.8691 40.4312L90.11 36.3209C90.7562 36.5191 91.3379 36.6268 91.8549 36.644C92.3806 36.6613 92.833 36.5406 93.2121 36.2821C93.5999 36.0236 93.9144 35.5841 94.1557 34.9637L94.4788 34.1235L87.3568 13.7011H93.1475L97.2578 28.2812H97.4646L101.614 13.7011H107.443L99.7266 35.7005C99.3561 36.769 98.852 37.6996 98.2143 38.4924C97.5853 39.2938 96.7882 39.9099 95.8231 40.3408C94.858 40.7802 93.6947 41 92.3332 41Z" fill="white"/>
<g clip-path="url(#clip0_35_2)">
<path d="M20.1898 33.5548L24.8551 33.554C25.196 33.554 25.537 33.5151 25.8684 33.4387L33.7994 31.6108C35.8226 31.1445 37.2516 29.3574 37.2516 27.3084V13.5989C37.2516 12.0097 36.3832 10.5364 34.9852 9.754L28.4538 6.09818C26.1605 4.81449 23.9709 5.71003 22.3077 7.74658L12.6486 4.03051C10.1235 3.05886 7.27601 4.27891 6.27429 6.77646C5.26805 9.2852 6.51656 12.1329 9.06963 13.1154L14.3248 14.3603L8.05991 13.7511C5.34043 13.7511 3.12799 15.9379 3.12799 18.6257C3.12799 21.3136 5.34043 23.5004 8.05991 23.5004H13.9006C13.6556 25.2496 14.4799 26.9192 15.9227 27.8329C15.0351 30.6715 17.1936 33.5548 20.1898 33.5548ZM20.1898 30.3549C18.5129 30.3549 18.5156 27.9178 20.1898 27.9178C20.7787 27.9178 21.2561 27.4404 21.2561 26.8514V26.3945C21.2561 25.8055 20.7787 25.3281 20.1898 25.3281H18.3236C16.6469 25.3281 16.6493 22.891 18.3236 22.891H20.1898C20.7787 22.891 21.2561 22.4136 21.2561 21.8247V21.3677C21.2561 20.7788 20.7787 20.3014 20.1898 20.3014H8.05991C5.76524 20.3014 5.7689 16.9503 8.05991 16.9503H20.1898C20.7787 16.9503 21.2561 16.4729 21.2561 15.8839V15.1087C21.2561 14.8931 21.1908 14.6827 21.0688 14.505C20.9469 14.3273 20.7739 14.1908 20.5727 14.1134L10.2186 10.1289C8.1157 9.31979 9.32335 6.17783 11.4997 7.01532L22.5998 11.2868C22.8094 11.3675 23.0391 11.3799 23.2562 11.3223C23.4733 11.2647 23.6666 11.1401 23.8087 10.9661L25.2592 9.19016C25.6471 8.71517 26.3488 8.58607 26.8913 8.88972L33.4227 12.5456C33.8112 12.7631 34.0525 13.1666 34.0525 13.599V27.3084C34.0525 27.8743 33.653 28.3617 33.081 28.4936L25.1499 30.3215C25.0532 30.3437 24.9543 30.355 24.8551 30.355H20.1898V30.3549Z" fill="#32D29A"/>
</g>
<defs>
<clipPath id="clip0_35_2">
<rect width="37.2516" height="37.2516" fill="white"/>
</clipPath>
</defs>
</svg>
